<?xml version="1.0" standalone="no"?>
<!DOCTYPE svg PUBLIC "-//W3C//DTD SVG 20010904//EN"
 "http://www.w3.org/TR/2001/REC-SVG-20010904/DTD/svg10.dtd">
<svg version="1.0" xmlns="http://www.w3.org/2000/svg"
 width="219.000000pt" height="219.000000pt" viewBox="0 0 219.000000 219.000000"
 preserveAspectRatio="xMidYMid meet">
<metadata>
Created by potrace 1.14, written by Peter Selinger 2001-2017
</metadata>
<g transform="translate(0.000000,219.000000) scale(0.100000,-0.100000)"
fill="#000000" stroke="none">
<path d="M1463 2183 c-25 -9 -12 -47 29 -85 54 -50 54 -72 -7 -219 -26 -63
-60 -149 -75 -192 -32 -89 -56 -130 -73 -125 -7 2 -42 64 -79 138 -36 74 -70
140 -75 145 -28 35 -43 76 -37 102 11 48 54 94 108 118 71 31 96 95 43 109
-43 11 -164 5 -244 -13 -59 -13 -94 -16 -126 -10 -143 26 -196 16 -183 -35 5
-21 19 -33 59 -51 29 -12 60 -31 70 -42 25 -29 94 -196 91 -220 -4 -25 -57
-160 -81 -207 -34 -67 -51 -58 -111 63 -26 53 -76 149 -110 214 -72 137 -77
170 -32 195 35 20 48 55 29 78 -11 13 -25 15 -84 9 -96 -10 -163 -12 -226 -5
-61 7 -109 -10 -109 -38 0 -35 29 -61 75 -68 51 -7 90 -40 98 -82 6 -30 92
-214 132 -281 23 -39 45 -85 136 -286 10 -22 21 -54 24 -72 16 -97 50 -112
113 -48 37 38 89 65 125 65 62 0 70 70 11 98 -39 18 -41 27 -15 85 11 23 31
70 46 104 41 94 66 91 101 -11 9 -27 30 -77 47 -110 16 -33 43 -98 58 -145 45
-134 68 -147 143 -82 25 22 73 50 105 62 33 11 62 28 66 37 7 18 -21 51 -52
63 -35 13 -29 59 18 158 23 47 66 147 96 221 70 174 89 203 161 239 66 33 85
52 80 78 -3 15 -15 18 -83 19 -77 0 -138 9 -158 21 -12 7 -88 12 -104 6z
m-364 -92 c12 -8 13 -14 3 -35 -14 -30 -38 -34 -45 -7 -5 19 8 51 21 51 4 0
13 -4 21 -9z"/>
<path d="M1955 1164 c-6 -1 -45 -12 -88 -24 -62 -17 -91 -21 -140 -15 -128 14
-525 1 -544 -18 -21 -21 -5 -46 39 -59 65 -19 70 -40 75 -283 8 -357 8 -363
-13 -386 -10 -12 -38 -30 -61 -40 -45 -19 -49 -25 -33 -49 7 -11 33 -16 107
-18 54 -1 112 -3 128 -3 17 -1 59 1 95 4 36 3 83 3 105 -1 54 -10 95 -4 102
14 10 26 -22 47 -77 50 -78 4 -105 13 -130 39 -20 22 -23 36 -24 105 -1 103 7
112 108 118 105 6 160 -15 170 -64 13 -62 48 -106 104 -130 31 -13 75 3 86 31
20 54 -9 118 -50 111 -32 -6 -57 22 -64 72 -7 48 13 176 36 227 10 22 18 42
18 45 1 3 13 25 27 50 31 52 82 195 77 212 -4 11 -32 17 -53 12z m-236 -125
c44 -24 70 -68 75 -126 7 -70 -3 -75 -143 -78 -154 -3 -163 3 -169 96 -3 52 0
69 15 87 35 44 161 56 222 21z m52 -295 c23 -21 24 -37 4 -54 -19 -15 -230
-21 -262 -7 -48 21 -34 63 26 76 17 3 72 5 122 4 70 -1 95 -6 110 -19z"/>
<path d="M925 1124 c-29 -29 -86 -51 -124 -47 -20 2 -65 13 -101 24 -126 38
-240 32 -350 -19 -119 -55 -170 -151 -136 -261 13 -44 79 -110 141 -141 76
-38 72 -65 -23 -166 -119 -128 -157 -211 -152 -333 1 -42 42 -123 75 -149 32
-26 107 -37 137 -21 85 45 89 135 7 169 -25 11 -32 10 -48 -4 -25 -22 -67 -20
-84 5 -17 23 -12 52 10 71 21 17 118 12 195 -11 84 -25 130 -33 197 -32 53 1
77 4 145 17 35 7 139 77 171 116 37 44 58 130 50 207 -8 79 -37 132 -88 163
-67 40 -86 58 -82 76 6 33 104 205 126 222 3 3 11 14 17 26 12 23 -5 69 -35
92 -22 16 -28 15 -48 -4z m-285 -84 c41 -17 55 -62 33 -109 -10 -20 -31 -51
-48 -69 -28 -32 -32 -34 -83 -28 -104 11 -145 53 -123 126 12 40 58 85 96 92
34 6 95 1 125 -12z m200 -131 c0 -28 -91 -166 -131 -199 -3 -3 -22 -28 -42
-56 -134 -193 -180 -251 -217 -277 -31 -22 -47 -22 -59 1 -13 24 7 62 69 133
25 29 70 87 100 130 62 88 165 218 210 267 26 27 34 30 50 22 11 -6 20 -15 20
-21z m-31 -349 c93 -65 47 -239 -68 -260 -103 -19 -181 5 -181 54 0 19 22 62
40 76 3 3 25 34 48 70 23 36 47 71 53 79 16 18 71 8 108 -19z"/>
</g>
</svg>
