<?xml version="1.0" encoding="UTF-8"?>
<svg width="24px" height="24px" viewBox="0 0 24 24" version="1.1" xmlns="http://www.w3.org/2000/svg" xmlns:xlink="http://www.w3.org/1999/xlink">
    <!-- Generator: Sketch 61 (89581) - https://sketch.com -->
    <title>streamline-icon-calendar-3@24x24 (1)</title>
    <desc>Created with Sketch.</desc>
    <g id="Vacatures" stroke="none" stroke-width="1" fill="none" fill-rule="evenodd" stroke-linecap="round" stroke-linejoin="round">
        <g transform="translate(-427.000000, -428.000000)" id="Vacature">
            <g transform="translate(427.000000, 345.000000)">
                <g>
                    <g id="streamline-icon-calendar-3@24x24-(1)" transform="translate(0.000000, 83.000000)">
                        <path d="M2.25,3.75 L21.75,3.75 C22.578,3.75 23.25,4.422 23.25,5.25 L23.25,21.75 C23.25,22.578 22.578,23.25 21.75,23.25 L2.25,23.25 C1.422,23.25 0.75,22.578 0.75,21.75 L0.75,5.25 C0.75,4.422 1.422,3.75 2.25,3.75 Z" id="Path" stroke="#EE008B" stroke-width="1.5"></path>
                        <line x1="0.75" y1="9.75" x2="23.25" y2="9.75" id="Path" stroke="#EE008B" stroke-width="1.5"></line>
                        <line x1="6.75" y1="6" x2="6.75" y2="0.75" id="Path" stroke="#EE008B" stroke-width="1.5"></line>
                        <line x1="17.25" y1="6" x2="17.25" y2="0.75" id="Path" stroke="#EE008B" stroke-width="1.5"></line>
                        <g id="Group"></g>
                        <path d="M5.625,13.5 C5.418,13.5 5.25,13.668 5.25,13.875 C5.25,14.082 5.418,14.25 5.625,14.25 C5.832,14.25 6,14.082 6,13.875 C6,13.668 5.832,13.5 5.625,13.5 L5.625,13.5" id="Path" stroke="#EE008B" stroke-width="1.5"></path>
                        <g id="Group"></g>
                        <path d="M5.625,18.75 C5.418,18.75 5.25,18.918 5.25,19.125 C5.25,19.332 5.418,19.5 5.625,19.5 C5.832,19.5 6,19.332 6,19.125 C6,18.918 5.832,18.75 5.625,18.75" id="Path" stroke="#EE008B" stroke-width="1.5"></path>
                        <g id="Group"></g>
                        <path d="M12,13.5 C11.793,13.5 11.625,13.668 11.625,13.875 C11.625,14.082 11.793,14.25 12,14.25 C12.207,14.25 12.375,14.082 12.375,13.875 C12.375,13.668 12.207,13.5 12,13.5 L12,13.5" id="Path" stroke="#EE008B" stroke-width="1.5"></path>
                        <g id="Group"></g>
                        <path d="M12,18.75 C11.793,18.75 11.625,18.918 11.625,19.125 C11.625,19.332 11.793,19.5 12,19.5 C12.207,19.5 12.375,19.332 12.375,19.125 C12.375,18.918 12.207,18.75 12,18.75" id="Path" stroke="#EE008B" stroke-width="1.5"></path>
                        <g id="Group"></g>
                        <path d="M18.375,13.5 C18.168,13.5 18,13.668 18,13.875 C18,14.082 18.168,14.25 18.375,14.25 C18.582,14.25 18.75,14.082 18.75,13.875 C18.75,13.668 18.582,13.5 18.375,13.5 L18.375,13.5" id="Path" stroke="#EE008B" stroke-width="1.5"></path>
                        <g id="Group"></g>
                        <path d="M18.375,18.75 C18.168,18.75 18,18.918 18,19.125 C18,19.332 18.168,19.5 18.375,19.5 C18.582,19.5 18.75,19.332 18.75,19.125 C18.75,18.918 18.582,18.75 18.375,18.75" id="Path" stroke="#EE008B" stroke-width="1.5"></path>
                    </g>
                </g>
            </g>
        </g>
    </g>
</svg>