<?xml version="1.0" encoding="UTF-8"?>
<svg width="17px" height="24px" viewBox="0 0 17 24" version="1.1" xmlns="http://www.w3.org/2000/svg" xmlns:xlink="http://www.w3.org/1999/xlink">
    <!-- Generator: Sketch 61 (89581) - https://sketch.com -->
    <title>streamline-icon-pin-1@24x24</title>
    <desc>Created with Sketch.</desc>
    <g id="Vacatures" stroke="none" stroke-width="1" fill="none" fill-rule="evenodd" stroke-linecap="round" stroke-linejoin="round">
        <g transform="translate(-653.000000, -430.000000)" id="Vacature" stroke="#EE008B" stroke-width="1.5">
            <g transform="translate(427.000000, 345.000000)">
                <g>
                    <g id="streamline-icon-pin-1@24x24" transform="translate(226.000000, 85.000000)">
                        <path d="M15.75,8.25 C15.75,12.471 12.817,14.899 10.619,17.25 C9.303,18.658 8.25,23.25 8.25,23.25 C8.25,23.25 7.2,18.661 5.887,17.257 C3.687,14.907 0.75,12.475 0.75,8.25 C0.75,4.108 4.108,0.75 8.25,0.75 C12.392,0.75 15.75,4.108 15.75,8.25 Z" id="Path"></path>
                        <path d="M8.25,5.25 C9.907,5.25 11.25,6.593 11.25,8.25 C11.25,9.907 9.907,11.25 8.25,11.25 C6.593,11.25 5.25,9.907 5.25,8.25 C5.25,6.593 6.593,5.25 8.25,5.25 Z" id="Path"></path>
                    </g>
                </g>
            </g>
        </g>
    </g>
</svg>