<?xml version="1.0" encoding="UTF-8"?>
<svg width="24px" height="24px" viewBox="0 0 24 24" version="1.1" xmlns="http://www.w3.org/2000/svg" xmlns:xlink="http://www.w3.org/1999/xlink">
    <!-- Generator: Sketch 61 (89581) - https://sketch.com -->
    <title>streamline-icon-phone@24x24</title>
    <desc>Created with Sketch.</desc>
    <g id="Symbols" stroke="none" stroke-width="1" fill="none" fill-rule="evenodd" stroke-linecap="round" stroke-linejoin="round">
        <g id="Footer" transform="translate(-120.000000, -318.000000)" stroke="#3da916" stroke-width="1.5">
            <g id="Contact">
                <g transform="translate(0.000000, 57.000000)">
                    <g id="streamline-icon-phone@24x24" transform="translate(120.000000, 261.000000)">
                        <path d="M15.04,22.39 L15.052,22.397 C17.24,23.79 20.102,23.476 21.936,21.642 L22.71,20.868 C23.43,20.147 23.43,18.98 22.71,18.259 L19.449,15 C18.728,14.28 17.561,14.28 16.84,15 L16.84,15 C16.121,15.72 14.954,15.721 14.234,15.002 C14.233,15.001 14.233,15.001 14.232,15 L9.014,9.781 C8.294,9.06 8.294,7.893 9.014,7.172 L9.014,7.172 C9.734,6.453 9.735,5.286 9.016,4.566 C9.015,4.565 9.015,4.565 9.014,4.564 L5.754,1.3 C5.033,0.58 3.866,0.58 3.145,1.3 L2.371,2.074 C0.537,3.908 0.223,6.77 1.615,8.958 L1.623,8.97 C5.196,14.26 9.751,18.815 15.04,22.39 Z" id="Path"></path>
                    </g>
                </g>
            </g>
        </g>
    </g>
</svg>
