<?xml version="1.0" encoding="UTF-8"?>
<svg width="23px" height="23px" viewBox="0 0 23 23" version="1.1" xmlns="http://www.w3.org/2000/svg" xmlns:xlink="http://www.w3.org/1999/xlink">
    <!-- Generator: Sketch 62 (91390) - https://sketch.com -->
    <title>streamline-icon-single-neutral-actions-information@40x40</title>
    <desc>Created with Sketch.</desc>
    <g id="Page-1" stroke="none" stroke-width="1" fill="none" fill-rule="evenodd" stroke-linecap="round" stroke-linejoin="round">
        <g id="streamline-icon-single-neutral-actions-information@40x40" transform="translate(1.000000, 1.000000)" stroke="#FFFFFF" stroke-width="2.5">
            <path d="M10.75,0.75 C16.2733333,0.75 20.75,5.22666667 20.75,10.75 C20.75,16.2733333 16.2733333,20.75 10.75,20.75 C5.22666667,20.75 0.75,16.2733333 0.75,10.75 C0.75,5.22666667 5.22666667,0.75 10.75,0.75 Z" id="Path"></path>
            <line x1="10.75" y1="15.75" x2="10.75" y2="10.75" id="Path"></line>
            <path d="M10.75,5.75 C10.405,5.75 10.125,6.03 10.125,6.375 C10.125,6.72 10.405,7 10.75,7 C11.095,7 11.375,6.72 11.375,6.375 C11.3766667,6.03 11.0983333,5.75166667 10.7533333,5.75 C10.7516667,5.75 10.7516667,5.75 10.75,5.75" id="Path"></path>
        </g>
    </g>
</svg>