<?xml version="1.0" encoding="UTF-8"?>
<svg width="60px" height="60px" viewBox="0 0 60 60" version="1.1" xmlns="http://www.w3.org/2000/svg" xmlns:xlink="http://www.w3.org/1999/xlink">
    <!-- Generator: Sketch 60.1 (88133) - https://sketch.com -->
    <title>streamline-icon-agriculture-machine-tractor@24x24</title>
    <desc>Created with Sketch.</desc>
    <g id="Home" stroke="none" stroke-width="1" fill="none" fill-rule="evenodd" stroke-linecap="round" stroke-linejoin="round">
        <g transform="translate(-126.000000, -527.000000)" id="USPs" stroke="#EE008B" stroke-width="2.5">
            <g transform="translate(0.000000, 475.000000)">
                <g id="USP-1" transform="translate(111.000000, 48.000000)">
                    <g id="Icoonrondje" transform="translate(0.000000, 4.000000)">
                        <g id="streamline-icon-agriculture-machine-tractor@24x24" transform="translate(15.000000, 0.000000)">
                            <path d="M23.75,1.8925 L45,1.8925 C46.38,1.8925 47.5,3.0125 47.5,4.3925 L47.5,9.3925 L47.5,9.3925 L21.25,9.3925 L21.25,9.3925 L21.25,4.3925 C21.25,3.0125 22.37,1.8925 23.75,1.8925 Z" id="Path"></path>
                            <path d="M43.7475,31.8925 C50.995,31.8925 56.8725,37.77 56.8725,45.0175 C56.8725,52.265 50.995,58.1425 43.7475,58.1425 C36.5,58.1425 30.6225,52.265 30.6225,45.0175 C30.6225,37.77 36.5,31.8925 43.7475,31.8925 Z" id="Path"></path>
                            <path d="M43.7475,39.3925 C46.855,39.3925 49.3725,41.91 49.3725,45.0175 C49.3725,48.125 46.855,50.6425 43.7475,50.6425 C40.64,50.6425 38.1225,48.125 38.1225,45.0175 C38.1225,41.91 40.64,39.3925 43.7475,39.3925 Z" id="Path"></path>
                            <path d="M10.3125,41.2675 C14.9725,41.2675 18.75,45.045 18.75,49.705 C18.75,54.365 14.9725,58.1425 10.3125,58.1425 C5.6525,58.1425 1.875,54.365 1.875,49.705 C1.875,45.045 5.6525,41.2675 10.3125,41.2675 Z" id="Path"></path>
                            <path d="M10.3125,50.6425 C9.795,50.6425 9.375,50.2225 9.375,49.705" id="Path"></path>
                            <path d="M11.25,49.705 C11.25,50.2225 10.83,50.6425 10.3125,50.6425" id="Path"></path>
                            <path d="M10.3125,48.7675 C10.83,48.7675 11.25,49.1875 11.25,49.705" id="Path"></path>
                            <path d="M9.375,49.705 C9.375,49.1875 9.795,48.7675 10.3125,48.7675" id="Path"></path>
                            <line x1="18.6975" y1="50.6425" x2="31.885" y2="50.6425" id="Path"></line>
                            <path d="M5.625,42.6925 L5.625,30.975 C5.625,29.2975 6.7375,27.825 8.35,27.3675 L17.5575,24.3925 L17.5,35.6425 L25,35.6425 L26.25,33.755 C32.6875,24.095 45.735,21.4825 55.395,27.92 C56.36,28.5625 57.27,29.285 58.1175,30.08" id="Path"></path>
                            <line x1="17.5575" y1="24.3925" x2="23.1225" y2="9.3925" id="Path"></line>
                            <line x1="51.8575" y1="26.02" x2="45.6225" y2="9.3925" id="Path"></line>
                        </g>
                    </g>
                </g>
            </g>
        </g>
    </g>
</svg>