<?xml version="1.0" encoding="UTF-8"?>
<svg width="62px" height="43px" viewBox="0 0 62 43" version="1.1" xmlns="http://www.w3.org/2000/svg" xmlns:xlink="http://www.w3.org/1999/xlink">
    <!-- Generator: Sketch 60.1 (88133) - https://sketch.com -->
    <title>streamline-icon-envelope@24x24 (1)</title>
    <desc>Created with Sketch.</desc>
    <g id="Home" stroke="none" stroke-width="1" fill="none" fill-rule="evenodd" stroke-linecap="round" stroke-linejoin="round">
        <g transform="translate(-741.000000, -655.000000)" id="USPs" stroke="#EE008B" stroke-width="2.5">
            <g transform="translate(0.000000, 475.000000)">
                <g id="USP-1-Copy-3" transform="translate(735.000000, 173.000000)">
                    <g id="Group-3" transform="translate(0.000000, 7.000000)">
                        <g id="streamline-icon-envelope@24x24-(1)" transform="translate(7.000000, -0.000000)">
                            <path d="M4.34210526,1.31578947 L55.6578947,1.31578947 C57.8368421,1.31578947 59.6052632,3.08421053 59.6052632,5.26315789 L59.6052632,36.8421053 C59.6052632,39.0210526 57.8368421,40.7894737 55.6578947,40.7894737 L4.34210526,40.7894737 C2.16315789,40.7894737 0.394736842,39.0210526 0.394736842,36.8421053 L0.394736842,5.26315789 C0.394736842,3.08421053 2.16315789,1.31578947 4.34210526,1.31578947 Z" id="Path"></path>
                            <line x1="39.7026316" y1="15.7236842" x2="49.7368421" y2="25" id="Path"></line>
                            <line x1="20.2973684" y1="15.7236842" x2="10.2631579" y2="25" id="Path"></line>
                            <path d="M58.6315789,2.66842105 L33.5973684,19.9315789 C31.4315789,21.4263158 28.5684211,21.4263158 26.4026316,19.9315789 L1.36842105,2.66842105" id="Path"></path>
                        </g>
                    </g>
                </g>
            </g>
        </g>
    </g>
</svg>