<?xml version="1.0" encoding="UTF-8"?>
<svg width="60px" height="60px" viewBox="0 0 60 60" version="1.1" xmlns="http://www.w3.org/2000/svg" xmlns:xlink="http://www.w3.org/1999/xlink">
    <!-- Generator: Sketch 61 (89581) - https://sketch.com -->
    <title>streamline-icon-multiple-actions-mail@24x24</title>
    <desc>Created with Sketch.</desc>
    <g id="Voor-Werkgevers" stroke="none" stroke-width="1" fill="none" fill-rule="evenodd" stroke-linecap="round" stroke-linejoin="round">
        <g id="Voor-werkgevers" transform="translate(-998.000000, -2554.000000)" stroke="#EE008B" stroke-width="2.5">
            <g id="Werkgevers-numbers" transform="translate(-1.000000, 2554.000000)">
                <g id="streamline-icon-multiple-actions-mail@24x24" transform="translate(999.000000, 0.000000)">
                    <path d="M58.125,39.375 L58.125,54.375 C58.125,56.445 56.445,58.125 54.375,58.125 L31.875,58.125 C29.805,58.125 28.125,56.445 28.125,54.375 L28.125,39.375" id="Path"></path>
                    <path d="M58.125,39.375 C58.125,37.305 56.445,35.625 54.375,35.625 L31.875,35.625 C29.805,35.625 28.125,37.305 28.125,39.375 L41.1375,47.5 C42.3525,48.26 43.8975,48.26 45.1125,47.5 L58.125,39.375 Z" id="Path"></path>
                    <path d="M16.875,1.875 C21.535,1.875 25.3125,5.6525 25.3125,10.3125 C25.3125,14.9725 21.535,18.75 16.875,18.75 C12.215,18.75 8.4375,14.9725 8.4375,10.3125 C8.4375,5.6525 12.215,1.875 16.875,1.875 Z" id="Path"></path>
                    <path d="M41.25,1.875 C44.875,1.875 47.8125,4.8125 47.8125,8.4375 C47.8125,12.0625 44.875,15 41.25,15 C37.625,15 34.6875,12.0625 34.6875,8.4375 C34.6875,4.8125 37.625,1.875 41.25,1.875 Z" id="Path"></path>
                    <path d="M28.63,28.1125 C23.375,21.6175 13.85,20.6125 7.355,25.8675 C4.3475,28.3 2.3875,31.7925 1.875,35.625" id="Path"></path>
                    <path d="M52.5000598,28.125 C52.52,21.935 47.5175,16.8975 41.3275,16.8774281 C37.835,16.865 34.5375,18.4825 32.4075,21.25" id="Path"></path>
                </g>
            </g>
        </g>
    </g>
</svg>