<?xml version="1.0" encoding="UTF-8"?>
<svg width="60px" height="60px" viewBox="0 0 60 60" version="1.1" xmlns="http://www.w3.org/2000/svg" xmlns:xlink="http://www.w3.org/1999/xlink">
    <!-- Generator: Sketch 61 (89581) - https://sketch.com -->
    <title>streamline-icon-single-neutral-actions-text@24x24</title>
    <desc>Created with Sketch.</desc>
    <g id="Voor-Werkgevers" stroke="none" stroke-width="1" fill="none" fill-rule="evenodd" stroke-linecap="round" stroke-linejoin="round">
        <g id="Voor-werkgevers" transform="translate(-383.000000, -2554.000000)" stroke="#00ACF1" stroke-width="2.5">
            <g id="Werkgevers-numbers" transform="translate(-1.000000, 2554.000000)">
                <g id="streamline-icon-single-neutral-actions-text@24x24" transform="translate(384.000000, 0.000000)">
                    <path d="M31.875,28.125 L54.375,28.125 C56.445,28.125 58.125,29.805 58.125,31.875 L58.125,54.375 C58.125,56.445 56.445,58.125 54.375,58.125 L31.875,58.125 C29.805,58.125 28.125,56.445 28.125,54.375 L28.125,31.875 C28.125,29.805 29.805,28.125 31.875,28.125 Z" id="Path"></path>
                    <line x1="35.625" y1="35.625" x2="50.625" y2="35.625" id="Path"></line>
                    <line x1="35.625" y1="43.125" x2="50.625" y2="43.125" id="Path"></line>
                    <line x1="35.625" y1="50.625" x2="41.25" y2="50.625" id="Path"></line>
                    <path d="M15,1.875 C19.1425,1.875 22.5,5.2325 22.5,9.375 C22.5,13.5175 19.1425,16.875 15,16.875 C10.8575,16.875 7.5,13.5175 7.5,9.375 C7.5,5.2325 10.8575,1.875 15,1.875 Z" id="Path"></path>
                    <path d="M23.73,23.95 C18.3175,19.1275 10.02,19.6075 5.2,25.02 C3.0575,27.425 1.875,30.53 1.875,33.75 L1.875,39.375 L7.5,39.375 L9.375,58.125 L20.625,58.125 L21.27,51.6625" id="Path"></path>
                </g>
            </g>
        </g>
    </g>
</svg>