<?xml version="1.0" encoding="UTF-8"?>
<svg width="60px" height="60px" viewBox="0 0 60 60" version="1.1" xmlns="http://www.w3.org/2000/svg" xmlns:xlink="http://www.w3.org/1999/xlink">
    <!-- Generator: Sketch 61 (89581) - https://sketch.com -->
    <title>employee3</title>
    <desc>Created with Sketch.</desc>
    <g id="Page-1" stroke="none" stroke-width="1" fill="none" fill-rule="evenodd" stroke-linecap="round" stroke-linejoin="round">
        <g id="employee3" transform="translate(1.000000, 1.000000)" stroke="#00ADEE" stroke-width="2.5">
            <line x1="12.125" y1="25.2775" x2="25.25" y2="25.2775" id="Path"></line>
            <line x1="12.125" y1="34.6525" x2="19.625" y2="34.6525" id="Path"></line>
            <line x1="12.125" y1="44.0275" x2="19.625" y2="44.0275" id="Path"></line>
            <path d="M23.375,57.1525 L4.625,57.1525 C2.555,57.1525 0.875,55.4725 0.875,53.4025 L0.875,14.0275 C0.875,11.9575 2.555,10.2775 4.625,10.2775 L14,10.2775 C14,5.1 18.1975,0.9025 23.375,0.9025 C28.5525,0.9025 32.75,5.1 32.75,10.2775 L42.125,10.2775 C44.195,10.2775 45.875,11.9575 45.875,14.0275 L45.875,19.6525" id="Path"></path>
            <path d="M23.375,8.4025 C23.8925,8.4025 24.3125,8.8225 24.3125,9.34 C24.3125,9.8575 23.8925,10.2775 23.375,10.2775 C22.8575,10.2775 22.4375,9.8575 22.4375,9.34 C22.4375,9.34 22.4375,9.34 22.4375,9.34 C22.4375,8.8225 22.8575,8.4025 23.375,8.4025" id="Path"></path>
            <path d="M42.125,27.1525 C50.41,27.1525 57.125,33.8675 57.125,42.1525 C57.125,50.4375 50.41,57.1525 42.125,57.1525 C33.84,57.1525 27.125,50.4375 27.125,42.1525 C27.125,33.8675 33.84,27.1525 42.125,27.1525 Z" id="Path"></path>
            <path d="M48.81,37.79 L41.5475,47.475 C40.925,48.305 39.7475,48.47 38.9175,47.8475 C38.8475,47.795 38.78,47.7375 38.72,47.675 L34.97,43.925" id="Path"></path>
        </g>
    </g>
</svg>