<?xml version="1.0" encoding="UTF-8"?>
<svg width="60px" height="60px" viewBox="0 0 60 60" version="1.1" xmlns="http://www.w3.org/2000/svg" xmlns:xlink="http://www.w3.org/1999/xlink">
    <!-- Generator: Sketch 61 (89581) - https://sketch.com -->
    <title>streamline-icon-database-search@24x24</title>
    <desc>Created with Sketch.</desc>
    <g id="Voor-Werkgevers" stroke="none" stroke-width="1" fill="none" fill-rule="evenodd" stroke-linecap="round" stroke-linejoin="round">
        <g id="Voor-werkgevers" transform="translate(-948.000000, -749.000000)" stroke="#00ACF1" stroke-width="2.5">
            <g id="USPs" transform="translate(-1.000000, 477.000000)">
                <g id="USP-1-Copy-5" transform="translate(942.000000, 263.000000)">
                    <g id="Group-3" transform="translate(0.000000, 9.000000)">
                        <g id="streamline-icon-database-search@24x24" transform="translate(7.000000, 0.000000)">
                            <path d="M24.4175,24.155 C11.56,23.12 1.875,18.575 1.875,13.1275 C1.875,6.9125 14.4675,1.8775 30,1.8775 C45.5325,1.8775 58.125,6.9125 58.125,13.1275 C58.125,16.08 55.28,18.7675 50.625,20.775" id="Path"></path>
                            <line x1="58.125" y1="28.1275" x2="58.125" y2="13.1275" id="Path"></line>
                            <path d="M1.875,13.1275 L1.875,28.1275 C1.875,32.7525 8.855,36.725 18.83,38.455" id="Path"></path>
                            <path d="M1.875,28.1275 L1.875,43.1275 C1.875,48.575 11.56,53.1275 24.4175,54.155" id="Path"></path>
                            <path d="M39.375,26.2525 C46.6225,26.2525 52.5,32.13 52.5,39.3775 C52.5,46.625 46.6225,52.5025 39.375,52.5025 C32.1275,52.5025 26.25,46.625 26.25,39.3775 C26.25,32.13 32.1275,26.2525 39.375,26.2525 Z" id="Path"></path>
                            <line x1="58.125" y1="58.1275" x2="48.655" y2="48.6575" id="Path"></line>
                        </g>
                    </g>
                </g>
            </g>
        </g>
    </g>
</svg>