<?xml version="1.0" encoding="UTF-8"?>
<svg width="60px" height="60px" viewBox="0 0 60 60" version="1.1" xmlns="http://www.w3.org/2000/svg" xmlns:xlink="http://www.w3.org/1999/xlink">
    <!-- Generator: Sketch 61 (89581) - https://sketch.com -->
    <title>streamline-icon-check-badge@24x24</title>
    <desc>Created with Sketch.</desc>
    <g id="Voor-Werkgevers" stroke="none" stroke-width="1" fill="none" fill-rule="evenodd" stroke-linecap="round" stroke-linejoin="round">
        <g id="Voor-werkgevers" transform="translate(-125.000000, -529.000000)" stroke="#EE008B" stroke-width="2.5">
            <g id="USPs" transform="translate(-1.000000, 477.000000)">
                <g id="USP-1" transform="translate(111.000000, 43.000000)">
                    <g id="Icoonrondje" transform="translate(0.000000, 9.000000)">
                        <g id="streamline-icon-check-badge@24x24" transform="translate(15.000000, 0.000000)">
                            <path d="M39.375,24.3725 L29.4225,37.6425 C28.8,38.47 27.625,38.6375 26.7975,38.015 C26.7275,37.9625 26.66,37.905 26.5975,37.8425 L20.625,31.8725" id="Path"></path>
                            <path d="M26.825,3.3925 C28.235,1.64 30.8,1.36 32.555,2.7725 C32.7825,2.9575 32.9925,3.165 33.175,3.3925 L36.955,8.095 C37.825,9.18 39.1875,9.745 40.57,9.595 L46.57,8.9425 C48.8075,8.695 50.8225,10.305 51.07,12.5425 C51.1025,12.8425 51.1025,13.1425 51.07,13.4425 L50.4175,19.4425 C50.2675,20.825 50.8325,22.1875 51.9175,23.0575 L56.62,26.8375 C58.3725,28.2475 58.6525,30.8125 57.24,32.5675 C57.055,32.795 56.8475,33.005 56.62,33.1875 L51.9025,36.95 C50.8175,37.8225 50.2525,39.185 50.4025,40.5675 L51.055,46.5675 C51.305,48.8025 49.695,50.8175 47.46,51.0675 C47.16,51.1 46.855,51.1 46.555,51.0675 L40.555,50.415 C39.1725,50.265 37.81,50.83 36.94,51.915 L33.175,56.6 C31.7675,58.3525 29.2025,58.6325 27.45,57.225 C27.22,57.04 27.01,56.83 26.825,56.6 L23.0475,51.9 C22.1775,50.815 20.8125,50.25 19.43,50.4 L13.43,51.0525 C11.1975,51.305 9.1825,49.6975 8.93,47.4625 C8.895,47.16 8.895,46.855 8.93,46.5525 L9.5825,40.5525 C9.7325,39.17 9.1675,37.805 8.0825,36.935 L3.3825,33.1575 C1.63,31.75 1.35,29.185 2.7575,27.4325 C2.9425,27.2025 3.1525,26.9925 3.3825,26.8075 L8.0825,23.0275 C9.1675,22.1575 9.7325,20.795 9.5825,19.4125 L8.93,13.4125 C8.68,11.1775 10.29,9.1625 12.525,8.9125 C12.825,8.88 13.13,8.88 13.43,8.9125 L19.43,9.565 C20.8125,9.715 22.175,9.15 23.0475,8.065 L26.825,3.3925 Z" id="Path"></path>
                        </g>
                    </g>
                </g>
            </g>
        </g>
    </g>
</svg>