<?xml version="1.0" encoding="UTF-8"?>
<svg width="60px" height="60px" viewBox="0 0 60 60" version="1.1" xmlns="http://www.w3.org/2000/svg" xmlns:xlink="http://www.w3.org/1999/xlink">
    <!-- Generator: Sketch 61 (89581) - https://sketch.com -->
    <title>streamline-icon-social-profile-click@24x24</title>
    <desc>Created with Sketch.</desc>
    <g id="Voor-Werkgevers" stroke="none" stroke-width="1" fill="none" fill-rule="evenodd" stroke-linecap="round" stroke-linejoin="round">
        <g id="Voor-werkgevers" transform="translate(-536.000000, -749.000000)" stroke="#EE008B" stroke-width="2.5">
            <g id="USPs" transform="translate(-1.000000, 477.000000)">
                <g id="USP-1-Copy-3" transform="translate(538.000000, 264.000000)">
                    <g id="streamline-icon-social-profile-click@24x24" transform="translate(0.000000, 9.000000)">
                        <path d="M56.84,57.125 L57.09,54.32 C57.4325,50.5625 54.93,47.1375 51.2475,46.32 L42.12,44.29 L42.12,29.9375 C42.12,27.3475 40.0225,25.25 37.4325,25.25 C34.8425,25.25 32.745,27.3475 32.745,29.9375 L32.745,52.9375 L29.0525,50.1675 C27.3575,48.8975 24.9575,49.2425 23.6875,50.9375 C22.6675,52.3 22.6675,54.17 23.6875,55.5325 L24.8725,57.1125" id="Path"></path>
                        <path d="M53.375,38.375 L53.375,4.625 C53.375,2.555 51.695,0.875 49.625,0.875 L4.625,0.875 C2.555,0.875 0.875,2.555 0.875,4.625 L0.875,45.875 C0.875,47.945 2.555,49.625 4.625,49.625 L15.875,49.625" id="Path"></path>
                        <line x1="0.875" y1="12.125" x2="53.375" y2="12.125" id="Path"></line>
                        <path d="M10.25,19.625 L21.5,19.625 C22.535,19.625 23.375,20.465 23.375,21.5 L23.375,32.75 C23.375,33.785 22.535,34.625 21.5,34.625 L10.25,34.625 C9.215,34.625 8.375,33.785 8.375,32.75 L8.375,21.5 C8.375,20.465 9.215,19.625 10.25,19.625 Z" id="Path"></path>
                        <line x1="8.375" y1="42.125" x2="23.3775" y2="42.125" id="Path"></line>
                        <line x1="30.875" y1="19.625" x2="45.8775" y2="19.625" id="Path"></line>
                    </g>
                </g>
            </g>
        </g>
    </g>
</svg>