<?xml version="1.0" encoding="UTF-8"?>
<svg width="60px" height="60px" viewBox="0 0 60 60" version="1.1" xmlns="http://www.w3.org/2000/svg" xmlns:xlink="http://www.w3.org/1999/xlink">
    <!-- Generator: Sketch 61 (89581) - https://sketch.com -->
    <title>streamline-icon-multiple-actions-check-1@24x24</title>
    <desc>Created with Sketch.</desc>
    <g id="Voor-Werkgevers" stroke="none" stroke-width="1" fill="none" fill-rule="evenodd" stroke-linecap="round" stroke-linejoin="round">
        <g id="Voor-werkgevers" transform="translate(-125.000000, -749.000000)" stroke="#00ACF1" stroke-width="2.5">
            <g id="USPs" transform="translate(-1.000000, 477.000000)">
                <g id="USP-1-Copy" transform="translate(126.000000, 264.000000)">
                    <g id="Icoonrondje-Copy" transform="translate(0.000000, 8.000000)">
                        <g id="streamline-icon-multiple-actions-check-1@24x24">
                            <path d="M15,1.875 C19.1425,1.875 22.5,5.2325 22.5,9.375 C22.5,13.5175 19.1425,16.875 15,16.875 C10.8575,16.875 7.5,13.5175 7.5,9.375 C7.5,5.2325 10.8575,1.875 15,1.875 Z" id="Path"></path>
                            <path d="M26.3875,27.22 C22.7775,20.9325 14.755,18.76 8.4675,22.37 C4.39,24.71 1.8775,29.05 1.875,33.75 L1.875,39.375 L7.5,39.375 L9.375,58.125 L20.625,58.125 L21.4325,50.0425" id="Path"></path>
                            <path d="M41.25,1.875 C44.875,1.875 47.8125,4.8125 47.8125,8.4375 C47.8125,12.0625 44.875,15 41.25,15 C37.625,15 34.6875,12.0625 34.6875,8.4375 C34.6875,4.8125 37.625,1.875 41.25,1.875 Z" id="Path"></path>
                            <path d="M51,22.5 C47.8925,17.12 41.01,15.2775 35.63,18.3875 C34.56,19.005 33.6,19.795 32.7875,20.725" id="Path"></path>
                            <path d="M43.125,28.125 C51.41,28.125 58.125,34.84 58.125,43.125 C58.125,51.41 51.41,58.125 43.125,58.125 C34.84,58.125 28.125,51.41 28.125,43.125 C28.125,34.84 34.84,28.125 43.125,28.125 Z" id="Path"></path>
                            <path d="M49.81,38.7625 L42.5475,48.4475 C41.925,49.2775 40.7475,49.4425 39.9175,48.82 C39.8475,48.7675 39.78,48.71 39.72,48.6475 L35.97,44.8975" id="Path"></path>
                        </g>
                    </g>
                </g>
            </g>
        </g>
    </g>
</svg>