<?xml version="1.0" encoding="UTF-8"?>
<svg width="60px" height="30px" viewBox="0 0 60 30" version="1.1" xmlns="http://www.w3.org/2000/svg" xmlns:xlink="http://www.w3.org/1999/xlink">
    <!-- Generator: Sketch 61 (89581) - https://sketch.com -->
    <title>streamline-icon-button-loop@24x24</title>
    <desc>Created with Sketch.</desc>
    <g id="Voor-Werkgevers" stroke="none" stroke-width="1" fill="none" fill-rule="evenodd" stroke-linecap="round" stroke-linejoin="round">
        <g id="Voor-werkgevers" transform="translate(-947.000000, -529.000000)" stroke="#EE008B" stroke-width="2.5">
            <g id="USPs" transform="translate(-1.000000, 477.000000)">
                <g id="USP-1-Copy-4" transform="translate(942.000000, 44.000000)">
                    <g id="Group-2" transform="translate(0.000000, 9.000000)">
                        <g id="streamline-icon-button-loop@24x24" transform="translate(6.000000, 0.000000)">
                            <path d="M34.75,21.25 C37.185,24.525 40.9275,26.5775 45,26.87 C52.2475,26.87 58.125,20.9925 58.125,13.745 C58.125,6.4975 52.2475,0.62 45,0.62 C35.625,0.62 30,13.745 30,13.745 C30,13.745 24.375,26.87 15,26.87 C7.7525,26.87 1.875,20.9925 1.875,13.745 C1.875,6.4975 7.7525,0.62 15,0.62 C19.0725,0.9175 22.815,2.9725 25.25,6.25" id="Path"></path>
                        </g>
                    </g>
                </g>
            </g>
        </g>
    </g>
</svg>