<?xml version="1.0" encoding="UTF-8"?>
<svg width="60px" height="60px" viewBox="0 0 60 60" version="1.1" xmlns="http://www.w3.org/2000/svg" xmlns:xlink="http://www.w3.org/1999/xlink">
    <!-- Generator: Sketch 61 (89581) - https://sketch.com -->
    <title>streamline-icon-iris-scan-approved-1@24x24</title>
    <desc>Created with Sketch.</desc>
    <g id="Voor-Werkgevers" stroke="none" stroke-width="1" fill="none" fill-rule="evenodd" stroke-linecap="round" stroke-linejoin="round">
        <g id="Voor-werkgevers" transform="translate(-793.000000, -2555.000000)" stroke="#00ACF1" stroke-width="2.5">
            <g id="Werkgevers-numbers" transform="translate(-1.000000, 2554.000000)">
                <g id="streamline-icon-iris-scan-approved-1@24x24" transform="translate(794.000000, 1.000000)">
                    <path d="M54.375,24.25 C55.33,23.3475 56.2275,22.4325 57.0575,21.5175 C58.4825,19.9375 58.4825,17.5325 57.0575,15.9525 C50.5,8.75 40.0775,1.71 30,1.8775 C19.9225,1.71 9.5,8.75 2.9475,15.9625 C1.5225,17.545 1.5225,19.945 2.9475,21.5275 C7.81,26.9725 13.87,31.2125 20.6525,33.915" id="Path"></path>
                    <path d="M26.25,27.3425 C21.5075,25.27 19.3425,19.745 21.415,15 C23.4875,10.255 29.0125,8.0925 33.7575,10.165 C38.4975,12.2375 40.6625,17.7575 38.595,22.5" id="Path"></path>
                    <path d="M43.125,28.125 C51.41,28.125 58.125,34.84 58.125,43.125 C58.125,51.41 51.41,58.125 43.125,58.125 C34.84,58.125 28.125,51.41 28.125,43.125 C28.125,34.84 34.84,28.125 43.125,28.125 Z" id="Path"></path>
                    <path d="M49.81,38.7625 L42.5475,48.4475 C41.925,49.2775 40.7475,49.4425 39.9175,48.82 C39.8475,48.7675 39.78,48.71 39.72,48.6475 L35.97,44.8975" id="Path"></path>
                </g>
            </g>
        </g>
    </g>
</svg>